<?xml version="1.0" standalone="no"?>
<!DOCTYPE svg PUBLIC "-//W3C//DTD SVG 20010904//EN"
 "http://www.w3.org/TR/2001/REC-SVG-20010904/DTD/svg10.dtd">
<svg version="1.0" xmlns="http://www.w3.org/2000/svg"
 width="100.000000pt" height="100.000000pt" viewBox="0 0 100.000000 100.000000"
 preserveAspectRatio="xMidYMid meet">
<metadata>
Created by potrace 1.11, written by Peter Selinger 2001-2013
</metadata>
<g transform="translate(0.000000,100.000000) scale(0.100000,-0.100000)"
fill="#000000" stroke="none">
<path d="M29 965 c-1 -5 -2 -218 -3 -472 -1 -304 2 -463 9 -464 25 -3 271 -5
280 -2 6 2 10 169 10 475 l0 472 -147 1 c-96 1 -148 -3 -149 -10z"/>
<path d="M679 975 c-1 0 -2 -214 -3 -475 l-1 -475 145 -1 c80 0 147 4 150 8 3
4 5 218 5 475 l0 468 -148 0 c-81 0 -148 0 -148 0z"/>
<path d="M355 821 c-3 -2 -5 -183 -5 -400 l0 -396 150 0 150 0 0 400 0 400
-145 1 c-80 0 -148 -2 -150 -5z"/>
</g>
</svg>
